{
 "cells": [
  {
   "cell_type": "code",
   "execution_count": 31,
   "metadata": {},
   "outputs": [
    {
     "name": "stderr",
     "output_type": "stream",
     "text": [
      "ffmpeg version 5.1.1 Copyright (c) 2000-2022 the FFmpeg developers\n",
      "  built with clang version 14.0.6\n",
      "  configuration: --prefix=/d/bld/ffmpeg_1662055343048/_h_env/Library --cc=clang.exe --cxx=clang++.exe --nm=llvm-nm --ar=llvm-ar --disable-doc --disable-openssl --enable-demuxer=dash --enable-hardcoded-tables --enable-libfreetype --enable-libfontconfig --enable-libopenh264 --ld=lld-link --target-os=win64 --enable-cross-compile --toolchain=msvc --host-cc=clang.exe --extra-libs=ucrt.lib --extra-libs=vcruntime.lib --extra-libs=oldnames.lib --strip=llvm-strip --disable-stripping --host-extralibs= --enable-gpl --enable-libx264 --enable-libx265 --enable-libaom --enable-libsvtav1 --enable-libxml2 --enable-pic --enable-shared --disable-static --enable-version3 --enable-zlib --pkg-config=/d/bld/ffmpeg_1662055343048/_build_env/Library/bin/pkg-config\n",
      "  libavutil      57. 28.100 / 57. 28.100\n",
      "  libavcodec     59. 37.100 / 59. 37.100\n",
      "  libavformat    59. 27.100 / 59. 27.100\n",
      "  libavdevice    59.  7.100 / 59.  7.100\n",
      "  libavfilter     8. 44.100 /  8. 44.100\n",
      "  libswscale      6.  7.100 /  6.  7.100\n",
      "  libswresample   4.  7.100 /  4.  7.100\n",
      "  libpostproc    56.  6.100 / 56.  6.100\n",
      "Input #0, mov,mp4,m4a,3gp,3g2,mj2, from 'data/video/kidnap/199-1/199-1_cam01_kidnap01_place01_day_spring.mp4':\n",
      "  Metadata:\n",
      "    major_brand     : mp42\n",
      "    minor_version   : 0\n",
      "    compatible_brands: mp42mp41\n",
      "    creation_time   : 2019-12-25T18:36:11.000000Z\n",
      "  Duration: 00:05:19.19, start: 0.000000, bitrate: 10889 kb/s\n",
      "  Stream #0:0[0x1](eng): Video: h264 (High) (avc1 / 0x31637661), yuv420p(tv, bt709, progressive), 3840x2160, 10887 kb/s, 29.97 fps, 29.97 tbr, 30k tbn (default)\n",
      "    Metadata:\n",
      "      creation_time   : 2019-12-25T18:36:11.000000Z\n",
      "      handler_name    : ?Mainconcept Video Media Handler\n",
      "      vendor_id       : [0][0][0][0]\n",
      "      encoder         : AVC Coding\n",
      "Output #0, mp4, to 'output/199-1_cam01_kidnap01_place01_day_spring.mp4':\n",
      "  Metadata:\n",
      "    major_brand     : mp42\n",
      "    minor_version   : 0\n",
      "    compatible_brands: mp42mp41\n",
      "    encoder         : Lavf59.27.100\n",
      "  Stream #0:0(eng): Video: h264 (High) (avc1 / 0x31637661), yuv420p(tv, bt709, progressive), 3840x2160, q=2-31, 10887 kb/s, 29.97 fps, 29.97 tbr, 30k tbn (default)\n",
      "    Metadata:\n",
      "      creation_time   : 2019-12-25T18:36:11.000000Z\n",
      "      handler_name    : ?Mainconcept Video Media Handler\n",
      "      vendor_id       : [0][0][0][0]\n",
      "      encoder         : AVC Coding\n",
      "Stream mapping:\n",
      "  Stream #0:0 -> #0:0 (copy)\n",
      "Press [q] to stop, [?] for help\n",
      "frame=    0 fps=0.0 q=-1.0 size=       0kB time=00:00:00.00 bitrate=N/A speed=N/A    \n",
      "frame=  482 fps=0.0 q=-1.0 Lsize=   20995kB time=00:00:16.98 bitrate=10125.5kbits/s speed=68.5x    \n",
      "video:20989kB audio:0kB subtitle:0kB other streams:0kB global headers:0kB muxing overhead: 0.026879%\n",
      "ffmpeg version 5.1.1 Copyright (c) 2000-2022 the FFmpeg developers\n",
      "  built with clang version 14.0.6\n",
      "  configuration: --prefix=/d/bld/ffmpeg_1662055343048/_h_env/Library --cc=clang.exe --cxx=clang++.exe --nm=llvm-nm --ar=llvm-ar --disable-doc --disable-openssl --enable-demuxer=dash --enable-hardcoded-tables --enable-libfreetype --enable-libfontconfig --enable-libopenh264 --ld=lld-link --target-os=win64 --enable-cross-compile --toolchain=msvc --host-cc=clang.exe --extra-libs=ucrt.lib --extra-libs=vcruntime.lib --extra-libs=oldnames.lib --strip=llvm-strip --disable-stripping --host-extralibs= --enable-gpl --enable-libx264 --enable-libx265 --enable-libaom --enable-libsvtav1 --enable-libxml2 --enable-pic --enable-shared --disable-static --enable-version3 --enable-zlib --pkg-config=/d/bld/ffmpeg_1662055343048/_build_env/Library/bin/pkg-config\n",
      "  libavutil      57. 28.100 / 57. 28.100\n",
      "  libavcodec     59. 37.100 / 59. 37.100\n",
      "  libavformat    59. 27.100 / 59. 27.100\n",
      "  libavdevice    59.  7.100 / 59.  7.100\n",
      "  libavfilter     8. 44.100 /  8. 44.100\n",
      "  libswscale      6.  7.100 /  6.  7.100\n",
      "  libswresample   4.  7.100 /  4.  7.100\n",
      "  libpostproc    56.  6.100 / 56.  6.100\n",
      "Input #0, mov,mp4,m4a,3gp,3g2,mj2, from 'data/video/kidnap/199-1/199-1_cam01_kidnap01_place01_day_summer.mp4':\n",
      "  Metadata:\n",
      "    major_brand     : mp42\n",
      "    minor_version   : 0\n",
      "    compatible_brands: mp42mp41\n",
      "    creation_time   : 2019-12-25T18:54:39.000000Z\n",
      "  Duration: 00:05:12.91, start: 0.000000, bitrate: 11045 kb/s\n",
      "  Stream #0:0[0x1](eng): Video: h264 (High) (avc1 / 0x31637661), yuv420p(tv, bt709, progressive), 3840x2160, 11042 kb/s, 29.97 fps, 29.97 tbr, 30k tbn (default)\n",
      "    Metadata:\n",
      "      creation_time   : 2019-12-25T18:54:39.000000Z\n",
      "      handler_name    : ?Mainconcept Video Media Handler\n",
      "      vendor_id       : [0][0][0][0]\n",
      "      encoder         : AVC Coding\n",
      "Output #0, mp4, to 'output/199-1_cam01_kidnap01_place01_day_summer.mp4':\n",
      "  Metadata:\n",
      "    major_brand     : mp42\n",
      "    minor_version   : 0\n",
      "    compatible_brands: mp42mp41\n",
      "    encoder         : Lavf59.27.100\n",
      "  Stream #0:0(eng): Video: h264 (High) (avc1 / 0x31637661), yuv420p(tv, bt709, progressive), 3840x2160, q=2-31, 11042 kb/s, 29.97 fps, 29.97 tbr, 30k tbn (default)\n",
      "    Metadata:\n",
      "      creation_time   : 2019-12-25T18:54:39.000000Z\n",
      "      handler_name    : ?Mainconcept Video Media Handler\n",
      "      vendor_id       : [0][0][0][0]\n",
      "      encoder         : AVC Coding\n",
      "Stream mapping:\n",
      "  Stream #0:0 -> #0:0 (copy)\n",
      "Press [q] to stop, [?] for help\n",
      "frame=    0 fps=0.0 q=-1.0 size=       0kB time=00:00:00.00 bitrate=N/A speed=N/A    \n",
      "frame=  440 fps=0.0 q=-1.0 Lsize=   19804kB time=00:00:14.97 bitrate=10835.3kbits/s speed=68.7x    \n",
      "video:19799kB audio:0kB subtitle:0kB other streams:0kB global headers:0kB muxing overhead: 0.026344%\n",
      "ffmpeg version 5.1.1 Copyright (c) 2000-2022 the FFmpeg developers\n",
      "  built with clang version 14.0.6\n",
      "  configuration: --prefix=/d/bld/ffmpeg_1662055343048/_h_env/Library --cc=clang.exe --cxx=clang++.exe --nm=llvm-nm --ar=llvm-ar --disable-doc --disable-openssl --enable-demuxer=dash --enable-hardcoded-tables --enable-libfreetype --enable-libfontconfig --enable-libopenh264 --ld=lld-link --target-os=win64 --enable-cross-compile --toolchain=msvc --host-cc=clang.exe --extra-libs=ucrt.lib --extra-libs=vcruntime.lib --extra-libs=oldnames.lib --strip=llvm-strip --disable-stripping --host-extralibs= --enable-gpl --enable-libx264 --enable-libx265 --enable-libaom --enable-libsvtav1 --enable-libxml2 --enable-pic --enable-shared --disable-static --enable-version3 --enable-zlib --pkg-config=/d/bld/ffmpeg_1662055343048/_build_env/Library/bin/pkg-config\n",
      "  libavutil      57. 28.100 / 57. 28.100\n",
      "  libavcodec     59. 37.100 / 59. 37.100\n",
      "  libavformat    59. 27.100 / 59. 27.100\n",
      "  libavdevice    59.  7.100 / 59.  7.100\n",
      "  libavfilter     8. 44.100 /  8. 44.100\n",
      "  libswscale      6.  7.100 /  6.  7.100\n",
      "  libswresample   4.  7.100 /  4.  7.100\n",
      "  libpostproc    56.  6.100 / 56.  6.100\n",
      "Input #0, mov,mp4,m4a,3gp,3g2,mj2, from 'data/video/kidnap/199-1/199-1_cam02_kidnap01_place01_day_spring.mp4':\n",
      "  Metadata:\n",
      "    major_brand     : mp42\n",
      "    minor_version   : 0\n",
      "    compatible_brands: mp42mp41\n",
      "    creation_time   : 2019-12-25T18:43:18.000000Z\n",
      "  Duration: 00:05:10.34, start: 0.000000, bitrate: 10117 kb/s\n",
      "  Stream #0:0[0x1](eng): Video: h264 (High) (avc1 / 0x31637661), yuv420p(tv, bt709, progressive), 3840x2160, 10114 kb/s, 29.97 fps, 29.97 tbr, 30k tbn (default)\n",
      "    Metadata:\n",
      "      creation_time   : 2019-12-25T18:43:18.000000Z\n",
      "      handler_name    : ?Mainconcept Video Media Handler\n",
      "      vendor_id       : [0][0][0][0]\n",
      "      encoder         : AVC Coding\n",
      "Output #0, mp4, to 'output/199-1_cam02_kidnap01_place01_day_spring.mp4':\n",
      "  Metadata:\n",
      "    major_brand     : mp42\n",
      "    minor_version   : 0\n",
      "    compatible_brands: mp42mp41\n",
      "    encoder         : Lavf59.27.100\n",
      "  Stream #0:0(eng): Video: h264 (High) (avc1 / 0x31637661), yuv420p(tv, bt709, progressive), 3840x2160, q=2-31, 10114 kb/s, 29.97 fps, 29.97 tbr, 30k tbn (default)\n",
      "    Metadata:\n",
      "      creation_time   : 2019-12-25T18:43:18.000000Z\n",
      "      handler_name    : ?Mainconcept Video Media Handler\n",
      "      vendor_id       : [0][0][0][0]\n",
      "      encoder         : AVC Coding\n",
      "Stream mapping:\n",
      "  Stream #0:0 -> #0:0 (copy)\n",
      "Press [q] to stop, [?] for help\n",
      "frame=    0 fps=0.0 q=-1.0 size=       0kB time=00:00:00.00 bitrate=N/A speed=N/A    \n",
      "frame=  532 fps=0.0 q=-1.0 Lsize=   21497kB time=00:00:17.97 bitrate=9795.7kbits/s speed=  81x    \n",
      "video:21491kB audio:0kB subtitle:0kB other streams:0kB global headers:0kB muxing overhead: 0.028032%\n",
      "ffmpeg version 5.1.1 Copyright (c) 2000-2022 the FFmpeg developers\n",
      "  built with clang version 14.0.6\n",
      "  configuration: --prefix=/d/bld/ffmpeg_1662055343048/_h_env/Library --cc=clang.exe --cxx=clang++.exe --nm=llvm-nm --ar=llvm-ar --disable-doc --disable-openssl --enable-demuxer=dash --enable-hardcoded-tables --enable-libfreetype --enable-libfontconfig --enable-libopenh264 --ld=lld-link --target-os=win64 --enable-cross-compile --toolchain=msvc --host-cc=clang.exe --extra-libs=ucrt.lib --extra-libs=vcruntime.lib --extra-libs=oldnames.lib --strip=llvm-strip --disable-stripping --host-extralibs= --enable-gpl --enable-libx264 --enable-libx265 --enable-libaom --enable-libsvtav1 --enable-libxml2 --enable-pic --enable-shared --disable-static --enable-version3 --enable-zlib --pkg-config=/d/bld/ffmpeg_1662055343048/_build_env/Library/bin/pkg-config\n",
      "  libavutil      57. 28.100 / 57. 28.100\n",
      "  libavcodec     59. 37.100 / 59. 37.100\n",
      "  libavformat    59. 27.100 / 59. 27.100\n",
      "  libavdevice    59.  7.100 / 59.  7.100\n",
      "  libavfilter     8. 44.100 /  8. 44.100\n",
      "  libswscale      6.  7.100 /  6.  7.100\n",
      "  libswresample   4.  7.100 /  4.  7.100\n",
      "  libpostproc    56.  6.100 / 56.  6.100\n",
      "Input #0, mov,mp4,m4a,3gp,3g2,mj2, from 'data/video/kidnap/199-1/199-1_cam02_kidnap01_place01_day_summer.mp4':\n",
      "  Metadata:\n",
      "    major_brand     : mp42\n",
      "    minor_version   : 0\n",
      "    compatible_brands: mp42mp41\n",
      "    creation_time   : 2019-12-25T19:05:40.000000Z\n",
      "  Duration: 00:05:01.33, start: 0.000000, bitrate: 11086 kb/s\n",
      "  Stream #0:0[0x1](eng): Video: h264 (High) (avc1 / 0x31637661), yuv420p(tv, bt709, progressive), 3840x2160, 11083 kb/s, 29.97 fps, 29.97 tbr, 30k tbn (default)\n",
      "    Metadata:\n",
      "      creation_time   : 2019-12-25T19:05:40.000000Z\n",
      "      handler_name    : ?Mainconcept Video Media Handler\n",
      "      vendor_id       : [0][0][0][0]\n",
      "      encoder         : AVC Coding\n",
      "Output #0, mp4, to 'output/199-1_cam02_kidnap01_place01_day_summer.mp4':\n",
      "  Metadata:\n",
      "    major_brand     : mp42\n",
      "    minor_version   : 0\n",
      "    compatible_brands: mp42mp41\n",
      "    encoder         : Lavf59.27.100\n",
      "  Stream #0:0(eng): Video: h264 (High) (avc1 / 0x31637661), yuv420p(tv, bt709, progressive), 3840x2160, q=2-31, 11083 kb/s, 29.97 fps, 29.97 tbr, 30k tbn (default)\n",
      "    Metadata:\n",
      "      creation_time   : 2019-12-25T19:05:40.000000Z\n",
      "      handler_name    : ?Mainconcept Video Media Handler\n",
      "      vendor_id       : [0][0][0][0]\n",
      "      encoder         : AVC Coding\n",
      "Stream mapping:\n",
      "  Stream #0:0 -> #0:0 (copy)\n",
      "Press [q] to stop, [?] for help\n",
      "frame=    0 fps=0.0 q=-1.0 size=       0kB time=00:00:00.00 bitrate=N/A speed=N/A    \n",
      "frame=  407 fps=0.0 q=-1.0 Lsize=   18998kB time=00:00:13.96 bitrate=11141.5kbits/s speed=50.8x    \n",
      "video:18993kB audio:0kB subtitle:0kB other streams:0kB global headers:0kB muxing overhead: 0.026042%\n"
     ]
    }
   ],
   "source": [
    "! python trim_video.py -s \"data/video/kidnap/199-1\" -d \"output\""
   ]
  },
  {
   "cell_type": "code",
   "execution_count": null,
   "metadata": {},
   "outputs": [],
   "source": []
  },
  {
   "cell_type": "code",
   "execution_count": null,
   "metadata": {},
   "outputs": [],
   "source": []
  }
 ],
 "metadata": {
  "kernelspec": {
   "display_name": "Python 3.8.13 ('anomaly-detect')",
   "language": "python",
   "name": "python3"
  },
  "language_info": {
   "codemirror_mode": {
    "name": "ipython",
    "version": 3
   },
   "file_extension": ".py",
   "mimetype": "text/x-python",
   "name": "python",
   "nbconvert_exporter": "python",
   "pygments_lexer": "ipython3",
   "version": "3.8.13"
  },
  "orig_nbformat": 4,
  "vscode": {
   "interpreter": {
    "hash": "0f31adedb7d6deb58b682ee953bce81d560b35d1a2e63823a63e0ee1df43b424"
   }
  }
 },
 "nbformat": 4,
 "nbformat_minor": 2
}
